<svg width="1316" height="629" viewBox="0 0 1316 629" fill="none" xmlns="http://www.w3.org/2000/svg">
<rect x="72" y="172" width="367" height="367" fill="#40E0D0"/>
<path d="M255.5 0L476.769 195H34.2305L255.5 0Z" fill="#40E0D0"/>
<path d="M323.561 232.091V395H293.811L222.936 292.466H221.743V395H187.3V232.091H217.527L287.845 334.545H289.277V232.091H323.561Z" fill="black"/>
<path d="M689.42 105.091V268H659.67L588.795 165.466H587.602V268H553.159V105.091H583.386L653.705 207.545H655.136V105.091H689.42ZM746.998 268V105.091H856.771V133.489H781.441V172.307H851.123V200.705H781.441V239.602H857.089V268H746.998ZM1001.65 151.943C1001.01 145.527 998.282 140.542 993.456 136.989C988.63 133.436 982.081 131.659 973.808 131.659C968.187 131.659 963.441 132.455 959.57 134.045C955.698 135.583 952.729 137.731 950.66 140.489C948.645 143.246 947.638 146.375 947.638 149.875C947.532 152.792 948.142 155.337 949.467 157.511C950.846 159.686 952.729 161.568 955.115 163.159C957.501 164.697 960.259 166.049 963.388 167.216C966.517 168.33 969.857 169.284 973.41 170.08L988.047 173.58C995.153 175.17 1001.68 177.292 1007.61 179.943C1013.55 182.595 1018.7 185.856 1023.05 189.727C1027.4 193.598 1030.76 198.159 1033.15 203.409C1035.59 208.659 1036.83 214.678 1036.89 221.466C1036.83 231.436 1034.29 240.08 1029.25 247.398C1024.27 254.663 1017.05 260.311 1007.61 264.341C998.229 268.318 986.907 270.307 973.649 270.307C960.498 270.307 949.043 268.292 939.285 264.261C929.581 260.231 921.998 254.265 916.535 246.364C911.126 238.409 908.289 228.572 908.024 216.852H941.354C941.725 222.314 943.289 226.875 946.047 230.534C948.857 234.14 952.596 236.871 957.263 238.727C961.982 240.53 967.312 241.432 973.251 241.432C979.085 241.432 984.149 240.583 988.445 238.886C992.793 237.189 996.16 234.83 998.547 231.807C1000.93 228.784 1002.13 225.311 1002.13 221.386C1002.13 217.727 1001.04 214.652 998.865 212.159C996.744 209.667 993.615 207.545 989.479 205.795C985.395 204.045 980.384 202.455 974.445 201.023L956.706 196.568C942.971 193.227 932.126 188.004 924.172 180.898C916.217 173.792 912.267 164.22 912.32 152.182C912.267 142.318 914.892 133.701 920.195 126.33C925.551 118.958 932.895 113.205 942.229 109.068C951.562 104.932 962.168 102.864 974.047 102.864C986.138 102.864 996.691 104.932 1005.71 109.068C1014.77 113.205 1021.83 118.958 1026.86 126.33C1031.9 133.701 1034.5 142.239 1034.66 151.943H1001.65ZM1082.97 133.489V105.091H1216.77V133.489H1166.89V268H1132.85V133.489H1082.97ZM581.239 539H544.33L600.568 376.091H644.955L701.114 539H664.205L623.398 413.318H622.125L581.239 539ZM578.932 474.966H666.114V501.852H578.932V474.966ZM749.946 539L703.332 376.091H740.957L767.923 489.284H769.275L799.025 376.091H831.241L860.912 489.523H862.344L889.309 376.091H926.934L880.321 539H846.753L815.73 432.489H814.457L783.514 539H749.946ZM966.002 539H929.093L985.332 376.091H1029.72L1085.88 539H1048.97L1008.16 413.318H1006.89L966.002 539ZM963.696 474.966H1050.88V501.852H963.696V474.966ZM1088.27 376.091H1126.85L1164 446.25H1165.59L1202.74 376.091H1241.32L1181.9 481.409V539H1147.7V481.409L1088.27 376.091Z" fill="black"/>
</svg>
